<?xml version="1.0" standalone="no"?>
<!DOCTYPE svg PUBLIC "-//W3C//DTD SVG 20010904//EN"
 "http://www.w3.org/TR/2001/REC-SVG-20010904/DTD/svg10.dtd">
<svg version="1.0" xmlns="http://www.w3.org/2000/svg"
 width="275.000000pt" height="159.000000pt" viewBox="0 0 275.000000 159.000000"
 preserveAspectRatio="xMidYMid meet">
<metadata>
Created by potrace 1.16, written by Peter Selinger 2001-2019
</metadata>
<g transform="translate(0.000000,159.000000) scale(0.100000,-0.100000)"
fill="#000000" stroke="none">
<path d="M132 1575 c-44 -19 -67 -73 -52 -120 15 -44 41 -66 89 -72 36 -5 44
-2 76 30 45 45 48 92 8 137 -34 36 -76 45 -121 25z"/>
<path d="M1534 1580 c-34 -13 -64 -59 -64 -97 0 -50 54 -103 105 -103 53 0 95
44 95 100 0 54 -14 79 -55 96 -39 16 -51 16 -81 4z"/>
<path d="M790 1250 c-295 -54 -468 -362 -370 -655 112 -331 546 -430 794 -181
73 73 112 150 134 259 47 237 -91 481 -315 558 -64 22 -180 31 -243 19z m221
-152 c73 -33 145 -108 183 -188 26 -57 30 -76 30 -150 0 -71 -4 -95 -27 -145
-33 -72 -104 -147 -172 -183 -45 -24 -61 -27 -150 -27 -118 0 -171 20 -243 92
-195 196 -112 532 153 620 59 19 161 11 226 -19z"/>
<path d="M2180 1249 c-172 -29 -329 -176 -376 -353 -16 -60 -18 -192 -3 -255
29 -128 133 -257 253 -316 194 -95 419 -55 564 99 95 102 131 196 132 341 0
144 -44 251 -146 352 -73 73 -156 117 -254 132 -74 12 -94 12 -170 0z m233
-153 c68 -33 140 -109 175 -184 23 -49 27 -70 27 -152 0 -88 -3 -101 -33 -162
-36 -74 -96 -134 -170 -169 -69 -34 -189 -38 -264 -9 -79 29 -150 96 -190 178
-30 61 -33 74 -33 162 0 82 4 103 27 152 45 97 129 174 221 204 65 22 174 13
240 -20z"/>
<path d="M110 691 c0 -596 2 -579 -60 -561 -16 5 -34 11 -40 15 -8 5 -10 -13
-8 -57 l3 -63 63 -12 c78 -16 121 -2 149 49 17 31 18 74 21 601 l3 567 -66 0
-65 0 0 -539z"/>
<path d="M1508 690 c-3 -612 1 -583 -76 -556 l-42 15 0 -59 c0 -58 0 -58 36
-70 20 -7 59 -13 87 -13 43 -1 53 3 77 30 47 52 50 92 50 663 l0 530 -65 0
-64 0 -3 -540z"/>
</g>
</svg>
